<svg width="33" height="28" viewBox="0 0 33 28" fill="none" xmlns="http://www.w3.org/2000/svg">
<path d="M17.2915 16.9989C16.854 17.426 16.604 18.0406 16.6665 18.6969C16.7603 19.8219 17.7915 20.6448 18.9165 20.6448H20.8957V21.8843C20.8957 24.0406 19.1353 25.801 16.979 25.801H5.02067C2.86442 25.801 1.104 24.0406 1.104 21.8843V14.874C1.104 12.7177 2.86442 10.9573 5.02067 10.9573H16.979C19.1353 10.9573 20.8957 12.7177 20.8957 14.874V16.374H18.7915C18.2082 16.374 17.6769 16.6031 17.2915 16.9989Z" stroke="#9197B3" stroke-width="1.82143" stroke-linecap="round" stroke-linejoin="round"/>
<path d="M1.104 15.8116V11.0513C1.104 9.81168 1.86442 8.70747 3.02067 8.26997L11.2915 5.14497C12.5832 4.65539 13.9686 5.61375 13.9686 6.99917V10.9575" stroke="#9197B3" stroke-width="1.82143" stroke-linecap="round" stroke-linejoin="round"/>
<path d="M21.9986 17.437V19.5829C21.9986 20.1558 21.5403 20.6245 20.9569 20.6453H18.9153C17.7903 20.6453 16.759 19.8224 16.6653 18.6974C16.6028 18.0412 16.8528 17.4266 17.2903 16.9995C17.6757 16.6037 18.2069 16.3745 18.7903 16.3745H20.9569C21.5403 16.3953 21.9986 16.8641 21.9986 17.437Z" stroke="#9197B3" stroke-width="1.82143" stroke-linecap="round" stroke-linejoin="round"/>
<path d="M5.7915 15.3845H13.0832" stroke="#9197B3" stroke-width="1.82143" stroke-linecap="round" stroke-linejoin="round"/>
<path d="M29.2864 3.12769L24.741 7.6731" stroke="#9197B3" stroke-width="1.60714" stroke-linecap="round" stroke-linejoin="round"/>
<path d="M23.9834 3.88549L23.9834 8.43091L28.5288 8.43091" stroke="#9197B3" stroke-width="1.60714" stroke-linecap="round" stroke-linejoin="round"/>
</svg>
